<?xml version="1.0" encoding="utf-8"?>
<!-- Generator: Adobe Adobe Illustrator 29.2.0, SVG Export Plug-In . SVG Version: 6.00 Build 0)  -->
<svg version="1.1" xmlns="http://www.w3.org/2000/svg" xmlns:xlink="http://www.w3.org/1999/xlink" x="0px" y="0px"
	 viewBox="0 0 500 500" style="enable-background:new 0 0 500 500;" xml:space="preserve">
<style type="text/css">
	.st0{fill:#FFFFFF;stroke:#000000;stroke-miterlimit:10;}
	.st1{fill:#E7581A;}
	.st2{fill:#FFFFFF;}
	.st3{fill:#FF5900;}
	.st4{fill:#2B3034;}
	.st5{fill:url(#SVGID_1_);}
	.st6{fill:url(#SVGID_00000152251641330022131280000011933965662430154149_);}
	.st7{fill:url(#SVGID_00000173841105338106366970000015846080093333669256_);}
	.st8{fill:url(#SVGID_00000098201266775972551700000006246480424371383470_);}
	.st9{fill:url(#SVGID_00000085941423913733470830000008985801898726818466_);}
	.st10{fill:url(#SVGID_00000183215720349151174280000011353229905505492644_);}
	.st11{fill:url(#SVGID_00000118397643919807415620000016406456587097266057_);}
	.st12{fill:url(#SVGID_00000080176622294044771520000002925079993736153747_);}
	.st13{fill:url(#SVGID_00000021088343900889462710000016312095017864659633_);}
	.st14{fill:url(#SVGID_00000163044207975391345080000009530425397395530662_);}
	.st15{fill:url(#SVGID_00000078730250222338216100000009533716089648924339_);}
	.st16{fill:url(#SVGID_00000119103666737926509370000015859347061064052658_);}
	.st17{fill:url(#SVGID_00000044856294173336717440000010156139593112002209_);}
	.st18{fill:url(#SVGID_00000059291227032249571550000017615614528472869777_);}
	.st19{fill:url(#SVGID_00000107584944318093074190000012233222370293776538_);}
	.st20{fill:url(#SVGID_00000000222204626348299580000007965925854568065945_);}
	.st21{fill:url(#SVGID_00000064336666437250241700000006906136629279906748_);}
	.st22{fill:url(#SVGID_00000151538954917501716990000004246179674029677221_);}
	.st23{fill:url(#SVGID_00000078732504833111455410000001211920360196046499_);}
	.st24{fill:url(#SVGID_00000082356585959894230670000013568349192612903092_);}
	.st25{fill:url(#SVGID_00000011753157764572158060000014851815625300915083_);}
	.st26{fill:url(#SVGID_00000168078279762060918060000015833638626980719035_);}
	.st27{fill:url(#SVGID_00000134241483436257715970000003474977761141417897_);}
	.st28{fill:url(#SVGID_00000150800750274589008050000011174535238012807554_);}
	.st29{fill:url(#SVGID_00000106840961104455274520000017229201059253895358_);}
	.st30{fill:url(#SVGID_00000179609136332087540560000012446351765250593946_);}
	.st31{fill:url(#SVGID_00000164488590763036597510000007680251775580714645_);}
	.st32{fill:url(#SVGID_00000116920709635793951030000017954245375708290203_);}
	.st33{fill:url(#SVGID_00000151524165182567129460000013939282176401095573_);}
	.st34{fill:#050304;}
	.st35{fill:url(#SVGID_00000070080076989878103420000007667318843350533522_);}
	.st36{fill:url(#SVGID_00000121239437093626098330000004150209533425270968_);}
	.st37{fill:url(#SVGID_00000074426554184282475190000013768129862856412058_);}
	.st38{fill:url(#SVGID_00000005979079369021812950000013071578385180230529_);}
	.st39{fill:url(#SVGID_00000107578043172729427140000013380661901900248970_);}
	.st40{fill:url(#SVGID_00000175292392059928183100000000956656357224146852_);}
	.st41{fill:url(#SVGID_00000010291789132885690630000017989196867763025048_);}
	.st42{fill:url(#SVGID_00000097496236110737750030000001853519663538646159_);}
	.st43{fill:url(#SVGID_00000084491531235712632430000014562661814432252056_);}
	.st44{fill:url(#SVGID_00000154421816999322832540000010154508534291259792_);}
	.st45{fill:url(#SVGID_00000141448090256157970090000009047459178918825143_);}
	.st46{fill:url(#SVGID_00000173863767505142759590000014499786810902722701_);}
	.st47{fill:url(#SVGID_00000033347136118400346060000014875457092962483089_);}
	.st48{fill:url(#SVGID_00000170970718449258774820000012546106769183625136_);}
	.st49{fill:url(#SVGID_00000005986800829174407140000005865452057355147949_);}
	.st50{fill:url(#SVGID_00000003805457953480746350000010454450797089746817_);}
	.st51{fill:url(#SVGID_00000111171652625780668960000004856465566914999451_);}
	.st52{fill:url(#SVGID_00000106856127412711495340000009659157088111768764_);}
</style>
<g id="Layer_1">
</g>
<g id="Layer_2">
	<g>
		<path class="st2" d="M253.45,187.63c-5.52,10.58-20.35,11.53-27.22,1.75l-50.33-71.97c-6.12-8.72-2.13-20.9,8.03-24.25
			l119.02-39.7c9.08-3.03,17.22,6.53,12.75,15.03L253.45,187.63z M438.82,220.16l-51.57,154.68c-4.15,12.45-20.68,14.88-28.17,4.15
			l-93.3-133.22c-6.8-9.72-1-23.23,10.75-24.93l144.85-21.52C433.13,197.56,442.58,208.9,438.82,220.16z"/>
		<g>
			<linearGradient id="SVGID_1_" gradientUnits="userSpaceOnUse" x1="239.2615" y1="468.4309" x2="327.2365" y2="322.4212">
				<stop  offset="0" style="stop-color:#FF581A"/>
				<stop  offset="1" style="stop-color:#E89C1A"/>
			</linearGradient>
			<path class="st5" d="M364.23,443.75c-0.92,2.95-1.92,6.23-2.98,9.55c-0.37,1.1-0.73,2.22-1.1,3.32
				c-1.97,5.9-4.05,11.68-6.23,15.88c-0.32,0.58-0.63,1.12-0.9,1.65c-0.27,0.43-0.48,0.8-0.75,1.17c-0.2,0.32-0.42,0.7-0.63,1.02
				c-0.27,0.42-0.53,0.85-0.85,1.27c-0.32,0.53-0.63,1.02-1,1.5c-0.38,0.47-0.75,0.95-1.12,1.38c-0.43,0.52-0.92,0.98-1.35,1.5
				c-4.62,5.42-10.27,9.67-16.58,12.65c-1.62,0.8-3.27,1.53-4.98,2.17c-0.05,0-0.1,0.05-0.17,0.05c-1.12,0.37-2.28,0.75-3.4,1.07
				c-0.68,0.22-1.32,0.37-2.02,0.53c-1.07,0.27-2.18,0.53-3.23,0.68c-1.12,0.22-2.23,0.37-3.35,0.53c-0.12,0-0.22,0-0.33,0.05
				c-1,0.05-2.02,0.17-3.02,0.22c-0.97,0.05-1.87,0.1-2.82,0.1c-0.58,0-1.18,0-1.77-0.05c-0.95,0-1.9-0.05-2.87-0.1
				c-0.05,0-0.1,0-0.1,0c-13.23-0.97-26.05-6.65-35.08-17.28c-35.73-37.2-48.48-88.88-65.33-126.93c-0.37-0.85-0.63-1.7-0.85-2.6
				c-0.9-3.73-0.43-7.67,1.38-11.07l29.72-56.82c5.52-10.63,20.35-11.6,27.22-1.82l102.43,146.3
				C365.03,433.8,365.78,438.96,364.23,443.75z"/>
			
				<linearGradient id="SVGID_00000183953347754894120690000009244949716911352491_" gradientUnits="userSpaceOnUse" x1="120.9396" y1="293.3394" x2="171.5175" y2="209.3966">
				<stop  offset="0" style="stop-color:#FF581A"/>
				<stop  offset="1" style="stop-color:#E89C1A"/>
			</linearGradient>
			<path style="fill:url(#SVGID_00000183953347754894120690000009244949716911352491_);" d="M218.27,255.03l-29.03,55.5
				c-2.7,5.27-9.13,7.07-14.18,4.52c-0.7-0.32-1.33-0.75-1.97-1.22c-0.12-0.12-0.22-0.22-0.32-0.27c-3.35-2.62-7.02-5.17-11.07-7.72
				c-9.3-5.78-20.25-11.48-32-17c-19.72-9.3-41.62-18.28-61.4-27.28c-0.52-0.2-0.95-0.52-1.37-0.9c0,0,0,0-0.07-0.05
				c-3.08-2.77-1.75-8.45,2.93-9.15l131.98-19.55C214.65,230,224.27,243.5,218.27,255.03z"/>
			
				<linearGradient id="SVGID_00000041992720065500053230000007230012256492849027_" gradientUnits="userSpaceOnUse" x1="336.7778" y1="220.9286" x2="471.5533" y2="-2.7544">
				<stop  offset="0" style="stop-color:#FF581A"/>
				<stop  offset="1" style="stop-color:#E89C1A"/>
			</linearGradient>
			<path style="fill:url(#SVGID_00000041992720065500053230000007230012256492849027_);" d="M500,32.25c0,0.38-0.05,0.75-0.05,1.17
				c0,0.65-0.05,1.28-0.12,1.87c0,0.05,0,0.05,0,0.05c-0.15,1.43-0.37,2.82-0.78,4.25c-0.17,0.7-0.33,1.33-0.6,1.97
				c-0.25,0.85-0.58,1.7-0.95,2.55l-37.95,113.87c-1.92,5.7-6.87,9.83-12.77,10.75l-155.97,23.12c-4.25,0.63-7.48-3.88-5.47-7.77
				l75.97-145.33c1.92-3.67,5.2-6.48,9.08-7.75l87.4-29.13c0.78-0.32,1.53-0.53,2.33-0.8c0.1,0,0.22,0,0.32-0.05
				c1.65-0.48,3.3-0.75,4.95-0.9c2.12-0.17,4.25-0.12,6.32,0.15c14.35,1.92,26.53,14.62,28.12,29.03
				C499.95,30.28,500,31.25,500,32.25z"/>
			
				<linearGradient id="SVGID_00000019636210522585237790000006236766847042346883_" gradientUnits="userSpaceOnUse" x1="56.2536" y1="253.9885" x2="140.3229" y2="114.461">
				<stop  offset="0" style="stop-color:#FF581A"/>
				<stop  offset="1" style="stop-color:#E89C1A"/>
			</linearGradient>
			<path style="fill:url(#SVGID_00000019636210522585237790000006236766847042346883_);" d="M179.03,208.36l-153.62,22.8
				c-4.1,0.58-8.25-0.42-11.55-2.77c-1.17-0.8-2.28-1.75-3.18-2.92c-5.65-7.1-8.83-15.47-10.02-24.15
				c-0.07-0.38-0.13-0.77-0.18-1.15c-0.17-0.85-0.27-1.77-0.32-2.67C0.05,196.3,0,195.06,0,193.85c0-12.97,4.47-25.93,12.75-35.93
				c0.65-0.75,1.28-1.48,2.03-2.23c0.15-0.27,0.37-0.48,0.68-0.75c5.17-5.42,11.65-9.72,19.25-12.22h0.05
				c1.22-0.43,2.45-0.8,3.72-1.12l87.6-29.18c6.7-2.23,14.03,0.22,18.13,5.95l45.55,65.07
				C196.58,193.16,190.78,206.61,179.03,208.36z"/>
			
				<linearGradient id="SVGID_00000026121882888983801820000013313238744012432257_" gradientUnits="userSpaceOnUse" x1="196.6969" y1="173.1993" x2="279.8608" y2="35.1745">
				<stop  offset="0" style="stop-color:#FF581A"/>
				<stop  offset="1" style="stop-color:#E89C1A"/>
			</linearGradient>
			<path style="fill:url(#SVGID_00000026121882888983801820000013313238744012432257_);" d="M315.7,68.5l-62.25,119.13
				c-5.52,10.58-20.35,11.53-27.22,1.75l-50.33-71.97c-6.12-8.72-2.13-20.9,8.03-24.25l119.02-39.7
				C312.03,50.43,320.17,60,315.7,68.5z"/>
			
				<linearGradient id="SVGID_00000134933025266486013540000004948659386265874074_" gradientUnits="userSpaceOnUse" x1="300.2118" y1="345.1695" x2="398.8377" y2="181.483">
				<stop  offset="0" style="stop-color:#FF581A"/>
				<stop  offset="1" style="stop-color:#E89C1A"/>
			</linearGradient>
			<path style="fill:url(#SVGID_00000134933025266486013540000004948659386265874074_);" d="M438.82,220.16l-51.57,154.68
				c-4.15,12.45-20.68,14.88-28.17,4.15l-93.3-133.22c-6.8-9.72-1-23.23,10.75-24.93l144.85-21.52
				C433.13,197.56,442.58,208.9,438.82,220.16z"/>
		</g>
	</g>
</g>
</svg>
